<svg width="128" height="128" viewBox="0 0 128 128" fill="none" xmlns="http://www.w3.org/2000/svg">
<rect width="128" height="128" rx="64" fill="white"/>
<path d="M64 11.5C53.6165 11.5 43.4662 14.5791 34.8326 20.3478C26.199 26.1166 19.4699 34.316 15.4963 43.9091C11.5227 53.5022 10.4831 64.0582 12.5088 74.2422C14.5345 84.4262 19.5347 93.7808 26.8769 101.123C34.2192 108.465 43.5738 113.465 53.7578 115.491C63.9418 117.517 74.4978 116.477 84.0909 112.504C93.684 108.53 101.883 101.801 107.652 93.1674C113.421 84.5338 116.5 74.3835 116.5 64C116.5 50.0761 110.969 36.7225 101.123 26.8769C91.2775 17.0312 77.9239 11.5 64 11.5ZM70.1568 59.2273C75.2201 59.2273 80.0759 61.2386 83.6561 64.8189C87.2364 68.3991 89.2477 73.2549 89.2477 78.3182C89.2477 83.3814 87.2364 88.2372 83.6561 91.8175C80.0759 95.3977 75.2201 97.4091 70.1568 97.4091H68.7727V109.007H59.2273V97.4091H57.8432C52.78 97.4091 47.9241 95.3977 44.3439 91.8175C40.7636 88.2372 38.7523 83.3814 38.7523 78.3182H48.2977C48.2977 80.8498 49.3034 83.2777 51.0935 85.0678C52.8837 86.8579 55.3116 87.8636 57.8432 87.8636H59.2273V68.7727H57.8432C52.78 68.7727 47.9241 66.7614 44.3439 63.1811C40.7636 59.6009 38.7523 54.745 38.7523 49.6818C38.7523 44.6186 40.7636 39.7627 44.3439 36.1825C47.9241 32.6023 52.78 30.5909 57.8432 30.5909H59.2273V18.9932H68.7727V30.5909H70.1568C75.2201 30.5909 80.0759 32.6023 83.6561 36.1825C87.2364 39.7627 89.2477 44.6186 89.2477 49.6818H79.7023C79.7023 47.1502 78.6966 44.7223 76.9065 42.9322C75.1164 41.142 72.6884 40.1364 70.1568 40.1364H68.7727V59.2273H70.1568Z" fill="black"/>
<path d="M48.25 49.6C48.25 52.1461 49.2587 54.5879 51.0543 56.3882C52.8499 58.1886 55.2852 59.2 57.8245 59.2H59.2128V40H57.8245C55.2852 40 52.8499 41.0114 51.0543 42.8118C49.2587 44.6121 48.25 47.0539 48.25 49.6ZM68.7872 88H70.1755C72.7148 88 75.1501 86.9886 76.9457 85.1882C78.7413 83.3879 79.75 80.9461 79.75 78.4C79.75 75.8539 78.7413 73.4121 76.9457 71.6118C75.1501 69.8114 72.7148 68.8 70.1755 68.8H68.7872V88Z" fill="black"/>
</svg>
